<svg id="visual" viewBox="0 0 900 900" width="900" height="900" xmlns="http://www.w3.org/2000/svg" xmlns:xlink="http://www.w3.org/1999/xlink" version="1.1"><rect x="0" y="0" width="900" height="900" fill="#010802"></rect><path d="M0 535L15 538C30 541 60 547 90 545.8C120 544.7 150 536.3 180 542.8C210 549.3 240 570.7 270 569.7C300 568.7 330 545.3 360 535.7C390 526 420 530 450 538.8C480 547.7 510 561.3 540 569.2C570 577 600 579 630 576.7C660 574.3 690 567.7 720 569.2C750 570.7 780 580.3 810 585.3C840 590.3 870 590.7 885 590.8L900 591L900 0L885 0C870 0 840 0 810 0C780 0 750 0 720 0C690 0 660 0 630 0C600 0 570 0 540 0C510 0 480 0 450 0C420 0 390 0 360 0C330 0 300 0 270 0C240 0 210 0 180 0C150 0 120 0 90 0C60 0 30 0 15 0L0 0Z" fill="#e09d66"></path><path d="M0 527L15 518C30 509 60 491 90 488.2C120 485.3 150 497.7 180 498.5C210 499.3 240 488.7 270 487.3C300 486 330 494 360 502.7C390 511.3 420 520.7 450 525.8C480 531 510 532 540 524.3C570 516.7 600 500.3 630 493.3C660 486.3 690 488.7 720 489C750 489.3 780 487.7 810 494.8C840 502 870 518 885 526L900 534L900 0L885 0C870 0 840 0 810 0C780 0 750 0 720 0C690 0 660 0 630 0C600 0 570 0 540 0C510 0 480 0 450 0C420 0 390 0 360 0C330 0 300 0 270 0C240 0 210 0 180 0C150 0 120 0 90 0C60 0 30 0 15 0L0 0Z" fill="#ee9679"></path><path d="M0 428L15 423.3C30 418.7 60 409.3 90 404.3C120 399.3 150 398.7 180 409C210 419.3 240 440.7 270 450.7C300 460.7 330 459.3 360 455.5C390 451.7 420 445.3 450 447C480 448.7 510 458.3 540 457.5C570 456.7 600 445.3 630 441.7C660 438 690 442 720 444.8C750 447.7 780 449.3 810 448.8C840 448.3 870 445.7 885 444.3L900 443L900 0L885 0C870 0 840 0 810 0C780 0 750 0 720 0C690 0 660 0 630 0C600 0 570 0 540 0C510 0 480 0 450 0C420 0 390 0 360 0C330 0 300 0 270 0C240 0 210 0 180 0C150 0 120 0 90 0C60 0 30 0 15 0L0 0Z" fill="#f49190"></path><path d="M0 342L15 348C30 354 60 366 90 372.7C120 379.3 150 380.7 180 382.3C210 384 240 386 270 385.2C300 384.3 330 380.7 360 377.2C390 373.7 420 370.3 450 374.7C480 379 510 391 540 392.3C570 393.7 600 384.3 630 382.8C660 381.3 690 387.7 720 389.3C750 391 780 388 810 381.5C840 375 870 365 885 360L900 355L900 0L885 0C870 0 840 0 810 0C780 0 750 0 720 0C690 0 660 0 630 0C600 0 570 0 540 0C510 0 480 0 450 0C420 0 390 0 360 0C330 0 300 0 270 0C240 0 210 0 180 0C150 0 120 0 90 0C60 0 30 0 15 0L0 0Z" fill="#f290a9"></path><path d="M0 296L15 298C30 300 60 304 90 312.2C120 320.3 150 332.7 180 329.3C210 326 240 307 270 302.7C300 298.3 330 308.7 360 314C390 319.3 420 319.7 450 324C480 328.3 510 336.7 540 332.5C570 328.3 600 311.7 630 310.7C660 309.7 690 324.3 720 327.8C750 331.3 780 323.7 810 315.3C840 307 870 298 885 293.5L900 289L900 0L885 0C870 0 840 0 810 0C780 0 750 0 720 0C690 0 660 0 630 0C600 0 570 0 540 0C510 0 480 0 450 0C420 0 390 0 360 0C330 0 300 0 270 0C240 0 210 0 180 0C150 0 120 0 90 0C60 0 30 0 15 0L0 0Z" fill="#e794c1"></path><path d="M0 265L15 261.7C30 258.3 60 251.7 90 248.3C120 245 150 245 180 250.7C210 256.3 240 267.7 270 269.2C300 270.7 330 262.3 360 253.3C390 244.3 420 234.7 450 233.7C480 232.7 510 240.3 540 241.5C570 242.7 600 237.3 630 241.5C660 245.7 690 259.3 720 262.2C750 265 780 257 810 256.8C840 256.7 870 264.3 885 268.2L900 272L900 0L885 0C870 0 840 0 810 0C780 0 750 0 720 0C690 0 660 0 630 0C600 0 570 0 540 0C510 0 480 0 450 0C420 0 390 0 360 0C330 0 300 0 270 0C240 0 210 0 180 0C150 0 120 0 90 0C60 0 30 0 15 0L0 0Z" fill="#d49bd6"></path><path d="M0 170L15 171.3C30 172.7 60 175.3 90 174.8C120 174.3 150 170.7 180 171.3C210 172 240 177 270 176.8C300 176.7 330 171.3 360 171.8C390 172.3 420 178.7 450 180.2C480 181.7 510 178.3 540 176.8C570 175.3 600 175.7 630 177.3C660 179 690 182 720 188.7C750 195.3 780 205.7 810 203.7C840 201.7 870 187.3 885 180.2L900 173L900 0L885 0C870 0 840 0 810 0C780 0 750 0 720 0C690 0 660 0 630 0C600 0 570 0 540 0C510 0 480 0 450 0C420 0 390 0 360 0C330 0 300 0 270 0C240 0 210 0 180 0C150 0 120 0 90 0C60 0 30 0 15 0L0 0Z" fill="#bba4e5"></path><path d="M0 137L15 136.8C30 136.7 60 136.3 90 138.8C120 141.3 150 146.7 180 147.2C210 147.7 240 143.3 270 142.5C300 141.7 330 144.3 360 143.2C390 142 420 137 450 131.8C480 126.7 510 121.3 540 119.3C570 117.3 600 118.7 630 121.3C660 124 690 128 720 133C750 138 780 144 810 141.3C840 138.7 870 127.3 885 121.7L900 116L900 0L885 0C870 0 840 0 810 0C780 0 750 0 720 0C690 0 660 0 630 0C600 0 570 0 540 0C510 0 480 0 450 0C420 0 390 0 360 0C330 0 300 0 270 0C240 0 210 0 180 0C150 0 120 0 90 0C60 0 30 0 15 0L0 0Z" fill="#9daced"></path><path d="M0 69L15 70.8C30 72.7 60 76.3 90 73C120 69.7 150 59.3 180 56.3C210 53.3 240 57.7 270 62.2C300 66.7 330 71.3 360 70.7C390 70 420 64 450 61.7C480 59.3 510 60.7 540 63.7C570 66.7 600 71.3 630 75.5C660 79.7 690 83.3 720 85.7C750 88 780 89 810 89.2C840 89.3 870 88.7 885 88.3L900 88L900 0L885 0C870 0 840 0 810 0C780 0 750 0 720 0C690 0 660 0 630 0C600 0 570 0 540 0C510 0 480 0 450 0C420 0 390 0 360 0C330 0 300 0 270 0C240 0 210 0 180 0C150 0 120 0 90 0C60 0 30 0 15 0L0 0Z" fill="#7eb4ee"></path></svg>