<svg id="visual" viewBox="0 0 900 900" width="900" height="900" xmlns="http://www.w3.org/2000/svg" xmlns:xlink="http://www.w3.org/1999/xlink" version="1.1"><rect x="0" y="0" width="900" height="900" fill="#010802"></rect><path d="M0 581L15 584.5C30 588 60 595 90 596.2C120 597.3 150 592.7 180 583.2C210 573.7 240 559.3 270 560.3C300 561.3 330 577.7 360 574.3C390 571 420 548 450 541.7C480 535.3 510 545.7 540 555.3C570 565 600 574 630 569.8C660 565.7 690 548.3 720 550.2C750 552 780 573 810 570.3C840 567.7 870 541.3 885 528.2L900 515L900 0L885 0C870 0 840 0 810 0C780 0 750 0 720 0C690 0 660 0 630 0C600 0 570 0 540 0C510 0 480 0 450 0C420 0 390 0 360 0C330 0 300 0 270 0C240 0 210 0 180 0C150 0 120 0 90 0C60 0 30 0 15 0L0 0Z" fill="#e09d66"></path><path d="M0 467L15 475.8C30 484.7 60 502.3 90 509.8C120 517.3 150 514.7 180 513.8C210 513 240 514 270 510.3C300 506.7 330 498.3 360 488.5C390 478.7 420 467.3 450 471.7C480 476 510 496 540 507C570 518 600 520 630 519.2C660 518.3 690 514.7 720 509.3C750 504 780 497 810 491.2C840 485.3 870 480.7 885 478.3L900 476L900 0L885 0C870 0 840 0 810 0C780 0 750 0 720 0C690 0 660 0 630 0C600 0 570 0 540 0C510 0 480 0 450 0C420 0 390 0 360 0C330 0 300 0 270 0C240 0 210 0 180 0C150 0 120 0 90 0C60 0 30 0 15 0L0 0Z" fill="#ee9679"></path><path d="M0 441L15 441.3C30 441.7 60 442.3 90 438.8C120 435.3 150 427.7 180 423.3C210 419 240 418 270 426.3C300 434.7 330 452.3 360 462.3C390 472.3 420 474.7 450 469.8C480 465 510 453 540 444C570 435 600 429 630 425.7C660 422.3 690 421.7 720 430.3C750 439 780 457 810 457.2C840 457.3 870 439.7 885 430.8L900 422L900 0L885 0C870 0 840 0 810 0C780 0 750 0 720 0C690 0 660 0 630 0C600 0 570 0 540 0C510 0 480 0 450 0C420 0 390 0 360 0C330 0 300 0 270 0C240 0 210 0 180 0C150 0 120 0 90 0C60 0 30 0 15 0L0 0Z" fill="#f49190"></path><path d="M0 354L15 355.5C30 357 60 360 90 357.8C120 355.7 150 348.3 180 353.3C210 358.3 240 375.7 270 377.7C300 379.7 330 366.3 360 359.3C390 352.3 420 351.7 450 360.2C480 368.7 510 386.3 540 393.2C570 400 600 396 630 389.5C660 383 690 374 720 370.2C750 366.3 780 367.7 810 367.3C840 367 870 365 885 364L900 363L900 0L885 0C870 0 840 0 810 0C780 0 750 0 720 0C690 0 660 0 630 0C600 0 570 0 540 0C510 0 480 0 450 0C420 0 390 0 360 0C330 0 300 0 270 0C240 0 210 0 180 0C150 0 120 0 90 0C60 0 30 0 15 0L0 0Z" fill="#f290a9"></path><path d="M0 340L15 341.5C30 343 60 346 90 346.2C120 346.3 150 343.7 180 342.7C210 341.7 240 342.3 270 333.3C300 324.3 330 305.7 360 296.3C390 287 420 287 450 289.3C480 291.7 510 296.3 540 306.7C570 317 600 333 630 333.5C660 334 690 319 720 312.7C750 306.3 780 308.7 810 314.8C840 321 870 331 885 336L900 341L900 0L885 0C870 0 840 0 810 0C780 0 750 0 720 0C690 0 660 0 630 0C600 0 570 0 540 0C510 0 480 0 450 0C420 0 390 0 360 0C330 0 300 0 270 0C240 0 210 0 180 0C150 0 120 0 90 0C60 0 30 0 15 0L0 0Z" fill="#e794c1"></path><path d="M0 252L15 250.3C30 248.7 60 245.3 90 244.2C120 243 150 244 180 249.3C210 254.7 240 264.3 270 270.3C300 276.3 330 278.7 360 274C390 269.3 420 257.7 450 250.2C480 242.7 510 239.3 540 245.8C570 252.3 600 268.7 630 272.7C660 276.7 690 268.3 720 259.3C750 250.3 780 240.7 810 237.8C840 235 870 239 885 241L900 243L900 0L885 0C870 0 840 0 810 0C780 0 750 0 720 0C690 0 660 0 630 0C600 0 570 0 540 0C510 0 480 0 450 0C420 0 390 0 360 0C330 0 300 0 270 0C240 0 210 0 180 0C150 0 120 0 90 0C60 0 30 0 15 0L0 0Z" fill="#d49bd6"></path><path d="M0 202L15 205.2C30 208.3 60 214.7 90 217.5C120 220.3 150 219.7 180 212C210 204.3 240 189.7 270 184.5C300 179.3 330 183.7 360 183.8C390 184 420 180 450 180C480 180 510 184 540 190.8C570 197.7 600 207.3 630 211C660 214.7 690 212.3 720 205.8C750 199.3 780 188.7 810 188.8C840 189 870 200 885 205.5L900 211L900 0L885 0C870 0 840 0 810 0C780 0 750 0 720 0C690 0 660 0 630 0C600 0 570 0 540 0C510 0 480 0 450 0C420 0 390 0 360 0C330 0 300 0 270 0C240 0 210 0 180 0C150 0 120 0 90 0C60 0 30 0 15 0L0 0Z" fill="#bba4e5"></path><path d="M0 139L15 134C30 129 60 119 90 114.7C120 110.3 150 111.7 180 118.7C210 125.7 240 138.3 270 145C300 151.7 330 152.3 360 151.2C390 150 420 147 450 139.7C480 132.3 510 120.7 540 120.5C570 120.3 600 131.7 630 139.5C660 147.3 690 151.7 720 146.7C750 141.7 780 127.3 810 122.5C840 117.7 870 122.3 885 124.7L900 127L900 0L885 0C870 0 840 0 810 0C780 0 750 0 720 0C690 0 660 0 630 0C600 0 570 0 540 0C510 0 480 0 450 0C420 0 390 0 360 0C330 0 300 0 270 0C240 0 210 0 180 0C150 0 120 0 90 0C60 0 30 0 15 0L0 0Z" fill="#9daced"></path><path d="M0 65L15 63.2C30 61.3 60 57.7 90 60.8C120 64 150 74 180 80.2C210 86.3 240 88.7 270 86.7C300 84.7 330 78.3 360 76.5C390 74.7 420 77.3 450 77.5C480 77.7 510 75.3 540 72C570 68.7 600 64.3 630 65.2C660 66 690 72 720 74.8C750 77.7 780 77.3 810 79.2C840 81 870 85 885 87L900 89L900 0L885 0C870 0 840 0 810 0C780 0 750 0 720 0C690 0 660 0 630 0C600 0 570 0 540 0C510 0 480 0 450 0C420 0 390 0 360 0C330 0 300 0 270 0C240 0 210 0 180 0C150 0 120 0 90 0C60 0 30 0 15 0L0 0Z" fill="#7eb4ee"></path></svg>