<svg id="visual" viewBox="0 0 900 900" width="900" height="900" xmlns="http://www.w3.org/2000/svg" xmlns:xlink="http://www.w3.org/1999/xlink" version="1.1"><rect x="0" y="0" width="900" height="900" fill="#010802"></rect><path d="M0 607L15 603.7C30 600.3 60 593.7 90 584.8C120 576 150 565 180 559.7C210 554.3 240 554.7 270 555.3C300 556 330 557 360 564.8C390 572.7 420 587.3 450 592.3C480 597.3 510 592.7 540 589.8C570 587 600 586 630 585.2C660 584.3 690 583.7 720 577C750 570.3 780 557.7 810 548.5C840 539.3 870 533.7 885 530.8L900 528L900 0L885 0C870 0 840 0 810 0C780 0 750 0 720 0C690 0 660 0 630 0C600 0 570 0 540 0C510 0 480 0 450 0C420 0 390 0 360 0C330 0 300 0 270 0C240 0 210 0 180 0C150 0 120 0 90 0C60 0 30 0 15 0L0 0Z" fill="#e09d66"></path><path d="M0 543L15 539.2C30 535.3 60 527.7 90 513C120 498.3 150 476.7 180 475.8C210 475 240 495 270 507C300 519 330 523 360 517.2C390 511.3 420 495.7 450 491.2C480 486.7 510 493.3 540 492.2C570 491 600 482 630 485.3C660 488.7 690 504.3 720 503.3C750 502.3 780 484.7 810 477.7C840 470.7 870 474.3 885 476.2L900 478L900 0L885 0C870 0 840 0 810 0C780 0 750 0 720 0C690 0 660 0 630 0C600 0 570 0 540 0C510 0 480 0 450 0C420 0 390 0 360 0C330 0 300 0 270 0C240 0 210 0 180 0C150 0 120 0 90 0C60 0 30 0 15 0L0 0Z" fill="#ee9679"></path><path d="M0 428L15 434.3C30 440.7 60 453.3 90 457.5C120 461.7 150 457.3 180 446C210 434.7 240 416.3 270 412.3C300 408.3 330 418.7 360 429.5C390 440.3 420 451.7 450 459.7C480 467.7 510 472.3 540 470.2C570 468 600 459 630 454.5C660 450 690 450 720 454.3C750 458.7 780 467.3 810 471.7C840 476 870 476 885 476L900 476L900 0L885 0C870 0 840 0 810 0C780 0 750 0 720 0C690 0 660 0 630 0C600 0 570 0 540 0C510 0 480 0 450 0C420 0 390 0 360 0C330 0 300 0 270 0C240 0 210 0 180 0C150 0 120 0 90 0C60 0 30 0 15 0L0 0Z" fill="#f49190"></path><path d="M0 348L15 357.2C30 366.3 60 384.7 90 389.8C120 395 150 387 180 382.2C210 377.3 240 375.7 270 379C300 382.3 330 390.7 360 387.7C390 384.7 420 370.3 450 370.8C480 371.3 510 386.7 540 383.8C570 381 600 360 630 359C660 358 690 377 720 385.7C750 394.3 780 392.7 810 389.7C840 386.7 870 382.3 885 380.2L900 378L900 0L885 0C870 0 840 0 810 0C780 0 750 0 720 0C690 0 660 0 630 0C600 0 570 0 540 0C510 0 480 0 450 0C420 0 390 0 360 0C330 0 300 0 270 0C240 0 210 0 180 0C150 0 120 0 90 0C60 0 30 0 15 0L0 0Z" fill="#f290a9"></path><path d="M0 284L15 292.8C30 301.7 60 319.3 90 321.7C120 324 150 311 180 305.7C210 300.3 240 302.7 270 300.7C300 298.7 330 292.3 360 298.7C390 305 420 324 450 329C480 334 510 325 540 325.3C570 325.7 600 335.3 630 332C660 328.7 690 312.3 720 308.8C750 305.3 780 314.7 810 315C840 315.3 870 306.7 885 302.3L900 298L900 0L885 0C870 0 840 0 810 0C780 0 750 0 720 0C690 0 660 0 630 0C600 0 570 0 540 0C510 0 480 0 450 0C420 0 390 0 360 0C330 0 300 0 270 0C240 0 210 0 180 0C150 0 120 0 90 0C60 0 30 0 15 0L0 0Z" fill="#e794c1"></path><path d="M0 250L15 252.8C30 255.7 60 261.3 90 260.2C120 259 150 251 180 251.2C210 251.3 240 259.7 270 263C300 266.3 330 264.7 360 267.7C390 270.7 420 278.3 450 276.3C480 274.3 510 262.7 540 262.2C570 261.7 600 272.3 630 269.3C660 266.3 690 249.7 720 244C750 238.3 780 243.7 810 250.5C840 257.3 870 265.7 885 269.8L900 274L900 0L885 0C870 0 840 0 810 0C780 0 750 0 720 0C690 0 660 0 630 0C600 0 570 0 540 0C510 0 480 0 450 0C420 0 390 0 360 0C330 0 300 0 270 0C240 0 210 0 180 0C150 0 120 0 90 0C60 0 30 0 15 0L0 0Z" fill="#d49bd6"></path><path d="M0 185L15 183.5C30 182 60 179 90 179.5C120 180 150 184 180 184.5C210 185 240 182 270 178.3C300 174.7 330 170.3 360 170.7C390 171 420 176 450 176C480 176 510 171 540 172.8C570 174.7 600 183.3 630 183.7C660 184 690 176 720 177.3C750 178.7 780 189.3 810 189C840 188.7 870 177.3 885 171.7L900 166L900 0L885 0C870 0 840 0 810 0C780 0 750 0 720 0C690 0 660 0 630 0C600 0 570 0 540 0C510 0 480 0 450 0C420 0 390 0 360 0C330 0 300 0 270 0C240 0 210 0 180 0C150 0 120 0 90 0C60 0 30 0 15 0L0 0Z" fill="#bba4e5"></path><path d="M0 131L15 127.7C30 124.3 60 117.7 90 121.5C120 125.3 150 139.7 180 146.8C210 154 240 154 270 148.2C300 142.3 330 130.7 360 129.5C390 128.3 420 137.7 450 143.5C480 149.3 510 151.7 540 152.3C570 153 600 152 630 148.5C660 145 690 139 720 139.7C750 140.3 780 147.7 810 145.5C840 143.3 870 131.7 885 125.8L900 120L900 0L885 0C870 0 840 0 810 0C780 0 750 0 720 0C690 0 660 0 630 0C600 0 570 0 540 0C510 0 480 0 450 0C420 0 390 0 360 0C330 0 300 0 270 0C240 0 210 0 180 0C150 0 120 0 90 0C60 0 30 0 15 0L0 0Z" fill="#9daced"></path><path d="M0 64L15 63C30 62 60 60 90 61.8C120 63.7 150 69.3 180 73.2C210 77 240 79 270 78.2C300 77.3 330 73.7 360 75.5C390 77.3 420 84.7 450 84.3C480 84 510 76 540 75.7C570 75.3 600 82.7 630 80.5C660 78.3 690 66.7 720 64.3C750 62 780 69 810 73.3C840 77.7 870 79.3 885 80.2L900 81L900 0L885 0C870 0 840 0 810 0C780 0 750 0 720 0C690 0 660 0 630 0C600 0 570 0 540 0C510 0 480 0 450 0C420 0 390 0 360 0C330 0 300 0 270 0C240 0 210 0 180 0C150 0 120 0 90 0C60 0 30 0 15 0L0 0Z" fill="#7eb4ee"></path></svg>